<mxfile host="Electron" modified="2024-08-22T06:09:14.874Z" agent="Mozilla/5.0 (X11; Linux x86_64) AppleWebKit/537.36 (KHTML, like Gecko) draw.io/24.6.4 Chrome/124.0.6367.207 Electron/30.0.6 Safari/537.36" etag="PiO5W9bLVSOju0RxKQxZ" version="24.6.4" type="device">
  <diagram name="Page-1" id="7inHc9Q6Ccn756RbUHnm">
    <mxGraphModel dx="1434" dy="835" grid="1" gridSize="10" guides="1" tooltips="1" connect="1" arrows="1" fold="1" page="1" pageScale="1" pageWidth="850" pageHeight="1100" math="0" shadow="0">
      <root>
        <mxCell id="0" />
        <mxCell id="1" parent="0" />
        <mxCell id="wIZ43N2knN1_QpdRfwYL-1" value="ska_cli" style="shape=umlFrame;whiteSpace=wrap;html=1;pointerEvents=0;" parent="1" vertex="1">
          <mxGeometry x="40" y="180" width="720" height="370" as="geometry" />
        </mxCell>
        <mxCell id="wIZ43N2knN1_QpdRfwYL-5" value="repos" style="shape=module;align=left;spacingLeft=20;align=center;verticalAlign=top;whiteSpace=wrap;html=1;" parent="1" vertex="1">
          <mxGeometry x="480" y="290" width="110" height="50" as="geometry" />
        </mxCell>
        <mxCell id="_1hHCrO5CZwxLzsTIWwX-1" value="nn_model" style="shape=module;align=left;spacingLeft=20;align=center;verticalAlign=top;whiteSpace=wrap;html=1;" parent="1" vertex="1">
          <mxGeometry x="480" y="385" width="110" height="50" as="geometry" />
        </mxCell>
        <mxCell id="_1hHCrO5CZwxLzsTIWwX-2" value="entities" style="shape=module;align=left;spacingLeft=20;align=center;verticalAlign=top;whiteSpace=wrap;html=1;" parent="1" vertex="1">
          <mxGeometry x="480" y="200" width="110" height="50" as="geometry" />
        </mxCell>
        <mxCell id="wpWViin_Y6ipoAt1LUYJ-13" value="" style="edgeStyle=orthogonalEdgeStyle;rounded=0;orthogonalLoop=1;jettySize=auto;html=1;" edge="1" parent="1" source="_1hHCrO5CZwxLzsTIWwX-7" target="_1hHCrO5CZwxLzsTIWwX-8">
          <mxGeometry relative="1" as="geometry" />
        </mxCell>
        <mxCell id="_1hHCrO5CZwxLzsTIWwX-7" value="seaorm lib" style="shape=module;align=left;spacingLeft=20;align=center;verticalAlign=top;whiteSpace=wrap;html=1;" parent="1" vertex="1">
          <mxGeometry x="630" y="250" width="110" height="50" as="geometry" />
        </mxCell>
        <mxCell id="_1hHCrO5CZwxLzsTIWwX-8" value="ska_llm" style="shape=module;align=left;spacingLeft=20;align=center;verticalAlign=top;whiteSpace=wrap;html=1;" parent="1" vertex="1">
          <mxGeometry x="630" y="355" width="110" height="50" as="geometry" />
        </mxCell>
        <mxCell id="wpWViin_Y6ipoAt1LUYJ-28" style="edgeStyle=orthogonalEdgeStyle;rounded=0;orthogonalLoop=1;jettySize=auto;html=1;entryX=0;entryY=0.5;entryDx=0;entryDy=0;dashed=1;" edge="1" parent="1" source="wpWViin_Y6ipoAt1LUYJ-1" target="wpWViin_Y6ipoAt1LUYJ-23">
          <mxGeometry relative="1" as="geometry">
            <Array as="points">
              <mxPoint x="230" y="380" />
              <mxPoint x="230" y="310" />
            </Array>
          </mxGeometry>
        </mxCell>
        <mxCell id="wpWViin_Y6ipoAt1LUYJ-32" style="edgeStyle=orthogonalEdgeStyle;rounded=0;orthogonalLoop=1;jettySize=auto;html=1;entryX=0;entryY=0.5;entryDx=0;entryDy=0;dashed=1;" edge="1" parent="1" source="wpWViin_Y6ipoAt1LUYJ-1" target="wpWViin_Y6ipoAt1LUYJ-25">
          <mxGeometry relative="1" as="geometry">
            <Array as="points">
              <mxPoint x="230" y="380" />
              <mxPoint x="230" y="360" />
            </Array>
          </mxGeometry>
        </mxCell>
        <mxCell id="wpWViin_Y6ipoAt1LUYJ-33" style="edgeStyle=orthogonalEdgeStyle;rounded=0;orthogonalLoop=1;jettySize=auto;html=1;entryX=0;entryY=0.5;entryDx=0;entryDy=0;dashed=1;" edge="1" parent="1" source="wpWViin_Y6ipoAt1LUYJ-1" target="wpWViin_Y6ipoAt1LUYJ-24">
          <mxGeometry relative="1" as="geometry">
            <Array as="points">
              <mxPoint x="230" y="380" />
              <mxPoint x="230" y="410" />
            </Array>
          </mxGeometry>
        </mxCell>
        <mxCell id="wpWViin_Y6ipoAt1LUYJ-35" style="edgeStyle=orthogonalEdgeStyle;rounded=0;orthogonalLoop=1;jettySize=auto;html=1;entryX=0;entryY=0.5;entryDx=0;entryDy=0;dashed=1;" edge="1" parent="1" source="wpWViin_Y6ipoAt1LUYJ-1" target="wpWViin_Y6ipoAt1LUYJ-27">
          <mxGeometry relative="1" as="geometry" />
        </mxCell>
        <mxCell id="wpWViin_Y6ipoAt1LUYJ-36" style="edgeStyle=orthogonalEdgeStyle;rounded=0;orthogonalLoop=1;jettySize=auto;html=1;entryX=0;entryY=0.5;entryDx=0;entryDy=0;dashed=1;" edge="1" parent="1" source="wpWViin_Y6ipoAt1LUYJ-1" target="wpWViin_Y6ipoAt1LUYJ-26">
          <mxGeometry relative="1" as="geometry" />
        </mxCell>
        <mxCell id="wpWViin_Y6ipoAt1LUYJ-1" value="command_model" style="ellipse;whiteSpace=wrap;html=1;" vertex="1" parent="1">
          <mxGeometry x="80" y="360" width="120" height="40" as="geometry" />
        </mxCell>
        <mxCell id="wpWViin_Y6ipoAt1LUYJ-4" style="edgeStyle=orthogonalEdgeStyle;rounded=0;orthogonalLoop=1;jettySize=auto;html=1;entryX=0;entryY=0.5;entryDx=0;entryDy=0;dashed=1;" edge="1" parent="1" source="wpWViin_Y6ipoAt1LUYJ-2" target="wpWViin_Y6ipoAt1LUYJ-3">
          <mxGeometry relative="1" as="geometry" />
        </mxCell>
        <mxCell id="wpWViin_Y6ipoAt1LUYJ-6" value="subcmd" style="edgeLabel;html=1;align=center;verticalAlign=middle;resizable=0;points=[];" vertex="1" connectable="0" parent="wpWViin_Y6ipoAt1LUYJ-4">
          <mxGeometry x="0.1" y="-1" relative="1" as="geometry">
            <mxPoint x="-9" y="-1" as="offset" />
          </mxGeometry>
        </mxCell>
        <mxCell id="wpWViin_Y6ipoAt1LUYJ-2" value="command_db" style="ellipse;whiteSpace=wrap;html=1;" vertex="1" parent="1">
          <mxGeometry x="80" y="205" width="120" height="40" as="geometry" />
        </mxCell>
        <mxCell id="wpWViin_Y6ipoAt1LUYJ-3" value="command_migrate" style="ellipse;whiteSpace=wrap;html=1;" vertex="1" parent="1">
          <mxGeometry x="265" y="205" width="120" height="40" as="geometry" />
        </mxCell>
        <mxCell id="wpWViin_Y6ipoAt1LUYJ-10" value="utils" style="shape=module;align=left;spacingLeft=20;align=center;verticalAlign=top;whiteSpace=wrap;html=1;" vertex="1" parent="1">
          <mxGeometry x="480" y="480" width="110" height="50" as="geometry" />
        </mxCell>
        <mxCell id="wpWViin_Y6ipoAt1LUYJ-17" style="edgeStyle=orthogonalEdgeStyle;rounded=0;orthogonalLoop=1;jettySize=auto;html=1;entryX=0;entryY=0;entryDx=0;entryDy=15;entryPerimeter=0;" edge="1" parent="1" source="_1hHCrO5CZwxLzsTIWwX-2" target="_1hHCrO5CZwxLzsTIWwX-7">
          <mxGeometry relative="1" as="geometry">
            <Array as="points">
              <mxPoint x="610" y="240" />
              <mxPoint x="610" y="265" />
            </Array>
          </mxGeometry>
        </mxCell>
        <mxCell id="wpWViin_Y6ipoAt1LUYJ-18" style="edgeStyle=orthogonalEdgeStyle;rounded=0;orthogonalLoop=1;jettySize=auto;html=1;entryX=0.082;entryY=0.492;entryDx=0;entryDy=0;entryPerimeter=0;" edge="1" parent="1" source="_1hHCrO5CZwxLzsTIWwX-1" target="_1hHCrO5CZwxLzsTIWwX-8">
          <mxGeometry relative="1" as="geometry">
            <Array as="points">
              <mxPoint x="610" y="415" />
              <mxPoint x="610" y="380" />
            </Array>
          </mxGeometry>
        </mxCell>
        <mxCell id="wpWViin_Y6ipoAt1LUYJ-19" style="edgeStyle=orthogonalEdgeStyle;rounded=0;orthogonalLoop=1;jettySize=auto;html=1;entryX=0;entryY=0;entryDx=0;entryDy=35;entryPerimeter=0;" edge="1" parent="1" source="_1hHCrO5CZwxLzsTIWwX-1" target="_1hHCrO5CZwxLzsTIWwX-7">
          <mxGeometry relative="1" as="geometry">
            <Array as="points">
              <mxPoint x="610" y="415" />
              <mxPoint x="610" y="285" />
            </Array>
          </mxGeometry>
        </mxCell>
        <mxCell id="wpWViin_Y6ipoAt1LUYJ-20" style="edgeStyle=orthogonalEdgeStyle;rounded=0;orthogonalLoop=1;jettySize=auto;html=1;entryX=0.084;entryY=0.494;entryDx=0;entryDy=0;entryPerimeter=0;" edge="1" parent="1" source="wIZ43N2knN1_QpdRfwYL-5" target="_1hHCrO5CZwxLzsTIWwX-7">
          <mxGeometry relative="1" as="geometry">
            <Array as="points">
              <mxPoint x="600" y="325" />
              <mxPoint x="600" y="275" />
            </Array>
          </mxGeometry>
        </mxCell>
        <mxCell id="wpWViin_Y6ipoAt1LUYJ-21" style="edgeStyle=orthogonalEdgeStyle;rounded=0;orthogonalLoop=1;jettySize=auto;html=1;entryX=0.083;entryY=0.49;entryDx=0;entryDy=0;entryPerimeter=0;" edge="1" parent="1" source="wpWViin_Y6ipoAt1LUYJ-3" target="_1hHCrO5CZwxLzsTIWwX-2">
          <mxGeometry relative="1" as="geometry">
            <Array as="points">
              <mxPoint x="440" y="240" />
              <mxPoint x="440" y="225" />
            </Array>
          </mxGeometry>
        </mxCell>
        <mxCell id="wpWViin_Y6ipoAt1LUYJ-22" style="edgeStyle=orthogonalEdgeStyle;rounded=0;orthogonalLoop=1;jettySize=auto;html=1;entryX=0;entryY=0;entryDx=0;entryDy=15;entryPerimeter=0;" edge="1" parent="1" source="wpWViin_Y6ipoAt1LUYJ-3" target="wIZ43N2knN1_QpdRfwYL-5">
          <mxGeometry relative="1" as="geometry">
            <Array as="points">
              <mxPoint x="440" y="240" />
              <mxPoint x="440" y="305" />
            </Array>
          </mxGeometry>
        </mxCell>
        <mxCell id="wpWViin_Y6ipoAt1LUYJ-23" value="command_download" style="ellipse;whiteSpace=wrap;html=1;" vertex="1" parent="1">
          <mxGeometry x="260" y="290" width="120" height="40" as="geometry" />
        </mxCell>
        <mxCell id="wpWViin_Y6ipoAt1LUYJ-24" value="command_create_skalm" style="ellipse;whiteSpace=wrap;html=1;" vertex="1" parent="1">
          <mxGeometry x="250" y="390" width="140" height="40" as="geometry" />
        </mxCell>
        <mxCell id="wpWViin_Y6ipoAt1LUYJ-25" value="command_insert" style="ellipse;whiteSpace=wrap;html=1;" vertex="1" parent="1">
          <mxGeometry x="260" y="340" width="120" height="40" as="geometry" />
        </mxCell>
        <mxCell id="wpWViin_Y6ipoAt1LUYJ-26" value="command_rag_invoke" style="ellipse;whiteSpace=wrap;html=1;" vertex="1" parent="1">
          <mxGeometry x="255" y="490" width="130" height="40" as="geometry" />
        </mxCell>
        <mxCell id="wpWViin_Y6ipoAt1LUYJ-27" value="command_rag_prepare" style="ellipse;whiteSpace=wrap;html=1;" vertex="1" parent="1">
          <mxGeometry x="255" y="440" width="130" height="40" as="geometry" />
        </mxCell>
        <mxCell id="wpWViin_Y6ipoAt1LUYJ-40" style="edgeStyle=orthogonalEdgeStyle;rounded=0;orthogonalLoop=1;jettySize=auto;html=1;entryX=0;entryY=0;entryDx=0;entryDy=15;entryPerimeter=0;" edge="1" parent="1" source="wpWViin_Y6ipoAt1LUYJ-25" target="_1hHCrO5CZwxLzsTIWwX-1">
          <mxGeometry relative="1" as="geometry">
            <Array as="points">
              <mxPoint x="460" y="360" />
              <mxPoint x="460" y="400" />
            </Array>
          </mxGeometry>
        </mxCell>
        <mxCell id="wpWViin_Y6ipoAt1LUYJ-41" style="edgeStyle=orthogonalEdgeStyle;rounded=0;orthogonalLoop=1;jettySize=auto;html=1;entryX=0;entryY=0;entryDx=10;entryDy=0;entryPerimeter=0;" edge="1" parent="1" source="wpWViin_Y6ipoAt1LUYJ-23" target="_1hHCrO5CZwxLzsTIWwX-1">
          <mxGeometry relative="1" as="geometry">
            <Array as="points">
              <mxPoint x="400" y="310" />
              <mxPoint x="400" y="340" />
              <mxPoint x="470" y="340" />
              <mxPoint x="470" y="385" />
            </Array>
          </mxGeometry>
        </mxCell>
        <mxCell id="wpWViin_Y6ipoAt1LUYJ-42" style="edgeStyle=orthogonalEdgeStyle;rounded=0;orthogonalLoop=1;jettySize=auto;html=1;entryX=0.061;entryY=0.509;entryDx=0;entryDy=0;entryPerimeter=0;" edge="1" parent="1" source="wpWViin_Y6ipoAt1LUYJ-24" target="_1hHCrO5CZwxLzsTIWwX-1">
          <mxGeometry relative="1" as="geometry" />
        </mxCell>
        <mxCell id="wpWViin_Y6ipoAt1LUYJ-43" style="edgeStyle=orthogonalEdgeStyle;rounded=0;orthogonalLoop=1;jettySize=auto;html=1;entryX=0;entryY=0;entryDx=0;entryDy=35;entryPerimeter=0;" edge="1" parent="1" source="wpWViin_Y6ipoAt1LUYJ-27" target="_1hHCrO5CZwxLzsTIWwX-1">
          <mxGeometry relative="1" as="geometry">
            <Array as="points">
              <mxPoint x="440" y="460" />
              <mxPoint x="440" y="420" />
            </Array>
          </mxGeometry>
        </mxCell>
        <mxCell id="wpWViin_Y6ipoAt1LUYJ-44" style="edgeStyle=orthogonalEdgeStyle;rounded=0;orthogonalLoop=1;jettySize=auto;html=1;entryX=0;entryY=0;entryDx=0;entryDy=15;entryPerimeter=0;" edge="1" parent="1" source="wpWViin_Y6ipoAt1LUYJ-27" target="wpWViin_Y6ipoAt1LUYJ-10">
          <mxGeometry relative="1" as="geometry">
            <Array as="points">
              <mxPoint x="440" y="460" />
              <mxPoint x="440" y="495" />
            </Array>
          </mxGeometry>
        </mxCell>
        <mxCell id="wpWViin_Y6ipoAt1LUYJ-45" style="edgeStyle=orthogonalEdgeStyle;rounded=0;orthogonalLoop=1;jettySize=auto;html=1;entryX=0;entryY=0;entryDx=10;entryDy=0;entryPerimeter=0;" edge="1" parent="1" source="wpWViin_Y6ipoAt1LUYJ-23" target="wpWViin_Y6ipoAt1LUYJ-10">
          <mxGeometry relative="1" as="geometry">
            <Array as="points">
              <mxPoint x="400" y="310" />
              <mxPoint x="400" y="340" />
              <mxPoint x="470" y="340" />
              <mxPoint x="470" y="480" />
            </Array>
          </mxGeometry>
        </mxCell>
        <mxCell id="wpWViin_Y6ipoAt1LUYJ-46" style="edgeStyle=orthogonalEdgeStyle;rounded=0;orthogonalLoop=1;jettySize=auto;html=1;entryX=0;entryY=0;entryDx=10;entryDy=0;entryPerimeter=0;" edge="1" parent="1" source="wpWViin_Y6ipoAt1LUYJ-25" target="wpWViin_Y6ipoAt1LUYJ-10">
          <mxGeometry relative="1" as="geometry">
            <Array as="points">
              <mxPoint x="460" y="360" />
              <mxPoint x="460" y="480" />
            </Array>
          </mxGeometry>
        </mxCell>
        <mxCell id="wpWViin_Y6ipoAt1LUYJ-47" style="edgeStyle=orthogonalEdgeStyle;rounded=0;orthogonalLoop=1;jettySize=auto;html=1;entryX=0;entryY=1;entryDx=10;entryDy=0;entryPerimeter=0;" edge="1" parent="1" source="wpWViin_Y6ipoAt1LUYJ-26" target="_1hHCrO5CZwxLzsTIWwX-1">
          <mxGeometry relative="1" as="geometry">
            <Array as="points">
              <mxPoint x="410" y="510" />
              <mxPoint x="410" y="435" />
            </Array>
          </mxGeometry>
        </mxCell>
        <mxCell id="wpWViin_Y6ipoAt1LUYJ-48" style="edgeStyle=orthogonalEdgeStyle;rounded=0;orthogonalLoop=1;jettySize=auto;html=1;entryX=0;entryY=0;entryDx=0;entryDy=35;entryPerimeter=0;" edge="1" parent="1" source="wpWViin_Y6ipoAt1LUYJ-26" target="wpWViin_Y6ipoAt1LUYJ-10">
          <mxGeometry relative="1" as="geometry">
            <Array as="points">
              <mxPoint x="410" y="510" />
              <mxPoint x="410" y="515" />
            </Array>
          </mxGeometry>
        </mxCell>
        <mxCell id="wpWViin_Y6ipoAt1LUYJ-49" style="edgeStyle=orthogonalEdgeStyle;rounded=0;orthogonalLoop=1;jettySize=auto;html=1;entryX=0;entryY=0;entryDx=0;entryDy=35;entryPerimeter=0;" edge="1" parent="1" source="wpWViin_Y6ipoAt1LUYJ-26" target="wIZ43N2knN1_QpdRfwYL-5">
          <mxGeometry relative="1" as="geometry">
            <Array as="points">
              <mxPoint x="410" y="510" />
              <mxPoint x="410" y="325" />
            </Array>
          </mxGeometry>
        </mxCell>
        <mxCell id="wpWViin_Y6ipoAt1LUYJ-51" style="edgeStyle=orthogonalEdgeStyle;rounded=0;orthogonalLoop=1;jettySize=auto;html=1;entryX=0;entryY=1;entryDx=10;entryDy=0;entryPerimeter=0;" edge="1" parent="1" source="wpWViin_Y6ipoAt1LUYJ-26" target="_1hHCrO5CZwxLzsTIWwX-2">
          <mxGeometry relative="1" as="geometry">
            <Array as="points">
              <mxPoint x="410" y="510" />
              <mxPoint x="410" y="250" />
            </Array>
          </mxGeometry>
        </mxCell>
      </root>
    </mxGraphModel>
  </diagram>
</mxfile>
